<svg width="80" height="36" viewBox="0 0 80 36" fill="none" xmlns="http://www.w3.org/2000/svg">
<rect width="80" height="36" rx="4" fill="white"/>
<path fill-rule="evenodd" clip-rule="evenodd" d="M75.7384 0V0H4.08363C1.82965 0 0 1.71657 0 3.83442V32.1321C0 34.25 1.82965 36 4.08363 36H75.7384C77.9924 36 79.8375 34.2894 79.8375 32.2179V3.92102C79.8375 1.71829 78.0307 0 75.7384 0V0ZM55.1805 34.3643V34.3643H4.08354C2.78955 34.3643 1.74104 33.3483 1.74104 32.1324V3.83471C1.74104 2.61888 2.78864 1.63627 4.08354 1.63627H55.1805V34.3643V34.3643ZM78.0946 30.6326L74.1926 34.3641H68.7976L78.0946 25.5575V30.6326V30.6326V30.6326ZM78.0965 22.7375H75.7458L63.4274 34.3642H58.0415L70.36 22.7375H64.9851L56.9237 30.3574V25.3621L59.6741 22.7366H56.9237V1.63529H75.7403C77.0562 1.63529 78.0974 2.63505 78.0974 3.91948V22.7375H78.0965Z" fill="#F8931F"/>
<path fill-rule="evenodd" clip-rule="evenodd" d="M10.7497 31.0161C14.4081 31.0161 15.8563 29.1709 15.8563 26.0953V23.7691H12.4643V26.783C12.4643 27.6516 12.0391 28.1214 10.7679 28.1214C9.53598 28.1214 9.07241 27.6507 9.07241 26.783V9.1997C9.07241 8.33112 9.53598 7.86125 10.7679 7.86125C12.0391 7.86125 12.4643 8.33198 12.4643 9.1997V12.229H15.8563V9.88736C15.8563 6.81176 14.4081 4.96657 10.7497 4.96657C7.13052 4.96657 5.6814 6.81176 5.6814 9.88736V26.0962C5.68231 29.1718 7.13052 31.0161 10.7497 31.0161Z" fill="#0059A3"/>
<path fill-rule="evenodd" clip-rule="evenodd" d="M20.7546 25.665V25.665H24.2971L24.9523 30.6604H28.2639L24.4906 5.33965H20.563L16.7896 30.6604H20.1012L20.7546 25.665V25.665ZM22.5251 11.158L23.9505 22.7358H21.1006L22.5251 11.158Z" fill="#0059A3"/>
<path fill-rule="evenodd" clip-rule="evenodd" d="M32.9984 19.6354V19.6354H34.1737C35.4449 19.6354 36.2972 20.1619 36.2972 21.6453V26.1682C36.2972 28.3752 36.3684 29.5405 37.3311 30.6603H40.4119C39.9109 29.7128 39.6892 28.665 39.6892 27.5795V21.863C39.6892 20.1988 39.3981 19.1133 37.395 18.5705C39.0121 18.2447 39.4136 17.1232 39.4136 15.7118V8.51202C39.4136 6.59481 38.0238 5.33868 35.9441 5.33868H29.6056V30.6594H32.9975V19.6354H32.9984ZM32.9976 8.26731H35.2516C35.8293 8.26731 36.0227 8.40364 36.0227 8.9464V16.0742C36.0227 16.617 35.8293 16.7936 35.2516 16.7936H32.9976V8.26731Z" fill="#0059A3"/>
<path fill-rule="evenodd" clip-rule="evenodd" d="M46.2889 31.0161C49.5239 31.0161 51.1473 29.1349 51.1473 26.6021V23.0566C51.1473 21.5732 50.7248 20.4517 49.7621 19.3662L45.7907 14.6992C45.1364 13.9396 44.8225 13.2879 44.8225 12.2024V9.1997C44.8225 8.33112 45.2961 7.86125 46.3346 7.86125C47.3739 7.86125 47.8476 8.33198 47.8476 9.1997V12.5737H51.2386V9.38062C51.2386 6.84777 49.5887 4.96657 46.3537 4.96657C43.1197 4.96657 41.4305 6.84777 41.4305 9.38062V12.9261C41.4305 14.4094 41.8613 15.531 42.7857 16.6165L46.8374 21.2834C47.4926 22.0431 47.8476 22.6948 47.8476 23.7803V26.783C47.8476 27.6516 47.3283 28.1214 46.2889 28.1214C45.2495 28.1214 44.7312 27.6507 44.7312 26.783V23.4244H41.4315V26.6012C41.4305 29.1349 43.054 31.0161 46.2889 31.0161Z" fill="#0059A3"/>
<path fill-rule="evenodd" clip-rule="evenodd" d="M66.2919 12.4204C67.0703 10.9191 67.5001 9.84128 67.5001 8.62802C67.5001 6.27952 66.4151 5.33378 64.7351 5.33378C63.3837 5.33378 61.9701 6.20064 61.9701 8.69833H63.7523C63.7523 7.49278 64.0589 6.854 64.7552 6.854C65.4725 6.854 65.7179 7.47135 65.7179 8.70262C65.7179 9.5489 65.6066 10.3009 64.7461 11.918L61.8707 17.5187V19.0329H67.554V17.4827H63.6912L66.2919 12.4204Z" fill="#0059A3"/>
<path fill-rule="evenodd" clip-rule="evenodd" d="M72.2288 5.512V5.512H70.5525L67.0957 14.2861V15.7608H70.4868V19.0336H72.2288V15.7608H73.145V14.2106H72.2288V5.512V5.512ZM70.4876 14.2112H68.7291L70.4876 9.70625V14.2112Z" fill="#0059A3"/>
</svg>
